solid exported
	facet normal 0.38268339756478936 0 0.9238795469260425
		outer loop
			vertex 0 0.22949999570846558 0.10000000149011612
			vertex 0 -0.22949999570846558 0.10000000149011612
			vertex 0.0707106813788414 0.22949999570846558 0.0707106813788414
		endloop
	endfacet
	facet normal 0.38268339756478936 0 0.9238795469260425
		outer loop
			vertex 0 -0.22949999570846558 0.10000000149011612
			vertex 0.0707106813788414 -0.22949999570846558 0.0707106813788414
			vertex 0.0707106813788414 0.22949999570846558 0.0707106813788414
		endloop
	endfacet
	facet normal 0.9238795469260425 0 0.38268339756478936
		outer loop
			vertex 0.0707106813788414 0.22949999570846558 0.0707106813788414
			vertex 0.0707106813788414 -0.22949999570846558 0.0707106813788414
			vertex 0.10000000149011612 0.22949999570846558 6.123233849335533e-18
		endloop
	endfacet
	facet normal 0.9238795469260425 0 0.38268339756478936
		outer loop
			vertex 0.0707106813788414 -0.22949999570846558 0.0707106813788414
			vertex 0.10000000149011612 -0.22949999570846558 6.123233849335533e-18
			vertex 0.10000000149011612 0.22949999570846558 6.123233849335533e-18
		endloop
	endfacet
	facet normal 0.9238795469260425 0 -0.38268339756478936
		outer loop
			vertex 0.10000000149011612 0.22949999570846558 6.123233849335533e-18
			vertex 0.10000000149011612 -0.22949999570846558 6.123233849335533e-18
			vertex 0.0707106813788414 0.22949999570846558 -0.0707106813788414
		endloop
	endfacet
	facet normal 0.9238795469260425 0 -0.38268339756478936
		outer loop
			vertex 0.10000000149011612 -0.22949999570846558 6.123233849335533e-18
			vertex 0.0707106813788414 -0.22949999570846558 -0.0707106813788414
			vertex 0.0707106813788414 0.22949999570846558 -0.0707106813788414
		endloop
	endfacet
	facet normal 0.3826833975647894 0 -0.9238795469260425
		outer loop
			vertex 0.0707106813788414 0.22949999570846558 -0.0707106813788414
			vertex 0.0707106813788414 -0.22949999570846558 -0.0707106813788414
			vertex 1.2246467698671066e-17 0.22949999570846558 -0.10000000149011612
		endloop
	endfacet
	facet normal 0.3826833975647894 0 -0.9238795469260425
		outer loop
			vertex 0.0707106813788414 -0.22949999570846558 -0.0707106813788414
			vertex 1.2246467698671066e-17 -0.22949999570846558 -0.10000000149011612
			vertex 1.2246467698671066e-17 0.22949999570846558 -0.10000000149011612
		endloop
	endfacet
	facet normal -0.38268339756478925 0 -0.9238795469260425
		outer loop
			vertex 1.2246467698671066e-17 0.22949999570846558 -0.10000000149011612
			vertex 1.2246467698671066e-17 -0.22949999570846558 -0.10000000149011612
			vertex -0.0707106813788414 0.22949999570846558 -0.0707106813788414
		endloop
	endfacet
	facet normal -0.38268339756478925 0 -0.9238795469260425
		outer loop
			vertex 1.2246467698671066e-17 -0.22949999570846558 -0.10000000149011612
			vertex -0.0707106813788414 -0.22949999570846558 -0.0707106813788414
			vertex -0.0707106813788414 0.22949999570846558 -0.0707106813788414
		endloop
	endfacet
	facet normal -0.9238795469260425 0 -0.3826833975647894
		outer loop
			vertex -0.0707106813788414 0.22949999570846558 -0.0707106813788414
			vertex -0.0707106813788414 -0.22949999570846558 -0.0707106813788414
			vertex -0.10000000149011612 0.22949999570846558 -1.8369702788777518e-17
		endloop
	endfacet
	facet normal -0.9238795469260425 0 -0.3826833975647894
		outer loop
			vertex -0.0707106813788414 -0.22949999570846558 -0.0707106813788414
			vertex -0.10000000149011612 -0.22949999570846558 -1.8369702788777518e-17
			vertex -0.10000000149011612 0.22949999570846558 -1.8369702788777518e-17
		endloop
	endfacet
	facet normal -0.9238795469260425 0 0.38268339756478925
		outer loop
			vertex -0.10000000149011612 0.22949999570846558 -1.8369702788777518e-17
			vertex -0.10000000149011612 -0.22949999570846558 -1.8369702788777518e-17
			vertex -0.0707106813788414 0.22949999570846558 0.0707106813788414
		endloop
	endfacet
	facet normal -0.9238795469260425 0 0.38268339756478925
		outer loop
			vertex -0.10000000149011612 -0.22949999570846558 -1.8369702788777518e-17
			vertex -0.0707106813788414 -0.22949999570846558 0.0707106813788414
			vertex -0.0707106813788414 0.22949999570846558 0.0707106813788414
		endloop
	endfacet
	facet normal -0.38268339756478953 0 0.9238795469260425
		outer loop
			vertex -0.0707106813788414 0.22949999570846558 0.0707106813788414
			vertex -0.0707106813788414 -0.22949999570846558 0.0707106813788414
			vertex -2.4492935397342132e-17 0.22949999570846558 0.10000000149011612
		endloop
	endfacet
	facet normal -0.38268339756478953 0 0.9238795469260425
		outer loop
			vertex -0.0707106813788414 -0.22949999570846558 0.0707106813788414
			vertex -2.4492935397342132e-17 -0.22949999570846558 0.10000000149011612
			vertex -2.4492935397342132e-17 0.22949999570846558 0.10000000149011612
		endloop
	endfacet
	facet normal 0 1 0
		outer loop
			vertex 0 0.22949999570846558 0.10000000149011612
			vertex 0.0707106813788414 0.22949999570846558 0.0707106813788414
			vertex 0 0.22949999570846558 0
		endloop
	endfacet
	facet normal 0 1 0
		outer loop
			vertex 0.0707106813788414 0.22949999570846558 0.0707106813788414
			vertex 0.10000000149011612 0.22949999570846558 6.123233849335533e-18
			vertex 0 0.22949999570846558 0
		endloop
	endfacet
	facet normal 0 1 0
		outer loop
			vertex 0.10000000149011612 0.22949999570846558 6.123233849335533e-18
			vertex 0.0707106813788414 0.22949999570846558 -0.0707106813788414
			vertex 0 0.22949999570846558 0
		endloop
	endfacet
	facet normal 0 1 0
		outer loop
			vertex 0.0707106813788414 0.22949999570846558 -0.0707106813788414
			vertex 1.2246467698671066e-17 0.22949999570846558 -0.10000000149011612
			vertex 0 0.22949999570846558 0
		endloop
	endfacet
	facet normal 0 1 0
		outer loop
			vertex 1.2246467698671066e-17 0.22949999570846558 -0.10000000149011612
			vertex -0.0707106813788414 0.22949999570846558 -0.0707106813788414
			vertex 0 0.22949999570846558 0
		endloop
	endfacet
	facet normal 0 1 0
		outer loop
			vertex -0.0707106813788414 0.22949999570846558 -0.0707106813788414
			vertex -0.10000000149011612 0.22949999570846558 -1.8369702788777518e-17
			vertex 0 0.22949999570846558 0
		endloop
	endfacet
	facet normal 0 1 0
		outer loop
			vertex -0.10000000149011612 0.22949999570846558 -1.8369702788777518e-17
			vertex -0.0707106813788414 0.22949999570846558 0.0707106813788414
			vertex 0 0.22949999570846558 0
		endloop
	endfacet
	facet normal 0 1 0
		outer loop
			vertex -0.0707106813788414 0.22949999570846558 0.0707106813788414
			vertex -2.4492935397342132e-17 0.22949999570846558 0.10000000149011612
			vertex 0 0.22949999570846558 0
		endloop
	endfacet
	facet normal 0 -1 0
		outer loop
			vertex 0.0707106813788414 -0.22949999570846558 0.0707106813788414
			vertex 0 -0.22949999570846558 0.10000000149011612
			vertex 0 -0.22949999570846558 0
		endloop
	endfacet
	facet normal 0 -1 0
		outer loop
			vertex 0.10000000149011612 -0.22949999570846558 6.123233849335533e-18
			vertex 0.0707106813788414 -0.22949999570846558 0.0707106813788414
			vertex 0 -0.22949999570846558 0
		endloop
	endfacet
	facet normal 0 -1 0
		outer loop
			vertex 0.0707106813788414 -0.22949999570846558 -0.0707106813788414
			vertex 0.10000000149011612 -0.22949999570846558 6.123233849335533e-18
			vertex 0 -0.22949999570846558 0
		endloop
	endfacet
	facet normal 0 -1 0
		outer loop
			vertex 1.2246467698671066e-17 -0.22949999570846558 -0.10000000149011612
			vertex 0.0707106813788414 -0.22949999570846558 -0.0707106813788414
			vertex 0 -0.22949999570846558 0
		endloop
	endfacet
	facet normal 0 -1 0
		outer loop
			vertex -0.0707106813788414 -0.22949999570846558 -0.0707106813788414
			vertex 1.2246467698671066e-17 -0.22949999570846558 -0.10000000149011612
			vertex 0 -0.22949999570846558 0
		endloop
	endfacet
	facet normal 0 -1 0
		outer loop
			vertex -0.10000000149011612 -0.22949999570846558 -1.8369702788777518e-17
			vertex -0.0707106813788414 -0.22949999570846558 -0.0707106813788414
			vertex 0 -0.22949999570846558 0
		endloop
	endfacet
	facet normal 0 -1 0
		outer loop
			vertex -0.0707106813788414 -0.22949999570846558 0.0707106813788414
			vertex -0.10000000149011612 -0.22949999570846558 -1.8369702788777518e-17
			vertex 0 -0.22949999570846558 0
		endloop
	endfacet
	facet normal 0 -1 0
		outer loop
			vertex -2.4492935397342132e-17 -0.22949999570846558 0.10000000149011612
			vertex -0.0707106813788414 -0.22949999570846558 0.0707106813788414
			vertex 0 -0.22949999570846558 0
		endloop
	endfacet
endsolid exported
